<svg width="181" height="66" viewBox="0 0 181 66" fill="none" xmlns="http://www.w3.org/2000/svg">
<path d="M141.934 52.5625L157.52 9.7381H149.314L152.842 0.0431976H180.382L176.852 9.7381H168.648L153.062 52.5625H141.932H141.934Z" fill="#F1F1EC"/>
<path d="M108.574 52.5625L127.691 0.0431976H150.111L146.637 9.584H135.344L131.094 21.2633H141.006L137.531 30.8041H127.62L123.176 43.0186H134.469L130.995 52.5595H108.574V52.5625Z" fill="#F1F1EC"/>
<path d="M84.2555 52.5625L103.37 0.0431976H114.499L98.9135 42.8672H109.15L105.622 52.5625H84.2555Z" fill="#F1F1EC"/>
<path d="M70.0415 52.5625L72.4665 42.1048H64.0995L58.9115 52.5625H47.7805L75.2655 0.0431976H92.0815L81.3315 52.5625H70.0395H70.0415ZM80.1255 10.3491H79.5585L68.5195 32.8696H74.7755L80.1285 10.3491H80.1255Z" fill="#F1F1EC"/>
<path d="M25.3505 52.5625L40.0445 0.0431976H49.4255L38.8845 41.7236H39.6955L59.1745 0.0431976H70.2215L43.5505 52.5625H25.3478H25.3505Z" fill="#B8963E"/>
<path d="M22.4738 52.5185H14.5822L29.5382 0H37.2325L22.4738 52.5185Z" fill="#B8963E" fill-opacity="0.7"/>
<path d="M11.5317 52.5185H6.5139L21.4726 0H26.293L11.5344 52.5185H11.5317Z" fill="#B8963E" fill-opacity="0.5"/>
<path d="M3.2145 52.6515H0L14.9587 0.129791H17.9759L3.2145 52.6515Z" fill="#B8963E" fill-opacity="0.39"/>
<path d="M18.4215 62.8685H0.00230408V64.0195H18.4215V62.8685Z" fill="#F1F1EC"/>
<path d="M21.9205 65.4685L22.7776 61.4355H24.4862C24.7484 61.4355 24.9782 61.4625 25.1729 61.5165C25.3729 61.5675 25.5352 61.6545 25.6622 61.7755C25.7947 61.8975 25.892 62.0595 25.9542 62.2595C26.0218 62.4595 26.0569 62.7035 26.0569 62.9895C26.0569 63.2975 26.0164 63.6005 25.9353 63.8985C25.8596 64.1955 25.7298 64.4605 25.5487 64.6925C25.3675 64.9255 25.1269 65.1145 24.8295 65.2575C24.5376 65.3985 24.1753 65.4685 23.7427 65.4685H21.9178H21.9205ZM23.6616 65.0225C23.8022 65.0225 23.9239 64.9655 24.0293 64.8525C24.1401 64.7335 24.2321 64.5845 24.3078 64.4065C24.3889 64.2255 24.4537 64.0255 24.5051 63.8085C24.5592 63.5875 24.6024 63.3765 24.6322 63.1735C24.6673 62.9705 24.689 62.7865 24.7025 62.6275C24.7187 62.4655 24.7268 62.3515 24.7268 62.2845C24.7268 62.1515 24.6998 62.0515 24.643 61.9785C24.5916 61.9025 24.5024 61.8655 24.3699 61.8655H24.0644L23.3859 65.0225H23.6589H23.6616ZM31.6105 62.3925C31.6105 62.6405 31.5395 62.8735 31.3995 63.0845C31.2585 63.2955 31.0287 63.4575 30.707 63.5685L31.4455 65.4685H30.0284L29.4688 63.7085H29.3985L29.0227 65.4685H27.6493L28.5063 61.4355H30.1771C30.3718 61.4355 30.5556 61.4485 30.7287 61.4725C30.9017 61.4945 31.0531 61.5405 31.1805 61.6135C31.3125 61.6815 31.4155 61.7785 31.4915 61.9055C31.5665 62.0275 31.6045 62.1925 31.6045 62.3945L31.6105 62.3925ZM29.7824 63.3005C29.8933 63.3005 29.9852 63.2655 30.0609 63.1925C30.142 63.1165 30.2042 63.0245 30.2528 62.9195C30.3042 62.8135 30.3393 62.7005 30.361 62.5845C30.3826 62.4595 30.3934 62.3545 30.3934 62.2655C30.3934 62.1545 30.3745 62.0625 30.3366 61.9865C30.2988 61.9055 30.215 61.8655 30.0879 61.8655H29.8013L29.4823 63.3005H29.7824ZM34.5705 65.4685H33.1965L34.0545 61.4355H35.4325L34.5675 65.4685H34.5705ZM37.3175 61.4325H38.7665L38.9825 64.1655L40.3045 61.4325H40.9345L39.0525 65.4665H37.5525L37.3175 61.4325ZM42.8705 61.4325H45.5445L45.4415 61.9165H44.1465L43.8785 63.1435H44.9655L44.8625 63.6195H43.7755L43.4835 64.9795H44.7785L44.6845 65.4685H42.0105L42.8675 61.4355L42.8705 61.4325ZM54.1385 65.4685H52.7275L53.3115 62.7245L51.8055 65.4685H50.9405L50.6535 62.6275L50.0425 65.4685H49.4695L50.3265 61.4355H51.9465L52.1435 63.7085L53.3625 61.4355H54.9955L54.1305 65.4685H54.1385ZM58.9725 61.3705C59.3375 61.3705 59.6325 61.4165 59.8565 61.5105C60.0865 61.6055 60.2645 61.7485 60.3975 61.9435C60.4815 62.0755 60.5485 62.2215 60.5945 62.3865C60.6405 62.5515 60.6645 62.7435 60.6645 62.9595C60.6645 63.1465 60.6485 63.3335 60.6135 63.5195C60.5785 63.7065 60.5295 63.8845 60.4675 64.0605C60.4085 64.2305 60.3355 64.3905 60.2455 64.5445C60.1625 64.6925 60.0645 64.8225 59.9595 64.9385C59.7595 65.1555 59.5295 65.3065 59.2675 65.3955C59.0075 65.4795 58.6885 65.5225 58.3075 65.5225C57.9265 65.5225 57.6425 65.4855 57.4175 65.4095C57.1935 65.3335 57.0155 65.2095 56.8855 65.0415C56.7935 64.9225 56.7175 64.7715 56.6635 64.5905C56.6125 64.4095 56.5875 64.1795 56.5875 63.9035C56.5875 63.4335 56.6715 63.0145 56.8365 62.6465C57.0075 62.2735 57.2445 61.9785 57.5555 61.7625C57.7425 61.6295 57.9505 61.5325 58.1775 61.4705C58.4075 61.4055 58.6725 61.3755 58.9775 61.3755L58.9725 61.3705ZM58.2535 65.0745C58.3505 65.0745 58.4425 65.0305 58.5265 64.9475C58.6155 64.8575 58.6965 64.7415 58.7675 64.5985C58.8425 64.4495 58.9105 64.2815 58.9695 64.0955C59.0345 63.9085 59.0865 63.7165 59.1295 63.5165C59.1725 63.3165 59.2025 63.1225 59.2235 62.9245C59.2485 62.7245 59.2615 62.5465 59.2615 62.3845C59.2615 62.1625 59.2375 62.0135 59.1915 61.9325C59.1485 61.8485 59.0865 61.8055 58.9995 61.8055C58.9025 61.8055 58.8075 61.8485 58.7215 61.9325C58.6315 62.0165 58.5485 62.1325 58.4665 62.2755C58.3915 62.4165 58.3205 62.5785 58.2585 62.7655C58.1995 62.9465 58.1475 63.1355 58.0995 63.3305C58.0555 63.5245 58.0235 63.7165 57.9965 63.9085C57.9745 64.1005 57.9645 64.2735 57.9645 64.4365C57.9645 64.6765 57.9885 64.8445 58.0395 64.9385C58.0935 65.0285 58.1645 65.0715 58.2475 65.0715L58.2535 65.0745ZM66.1935 62.3925C66.1935 62.6405 66.1235 62.8735 65.9855 63.0845C65.8445 63.2955 65.6155 63.4575 65.2935 63.5685L66.0315 65.4685H64.6145L64.0555 63.7085H63.9845L63.6095 65.4685H62.2355L63.0925 61.4355H64.7635C64.9585 61.4355 65.1415 61.4485 65.3145 61.4725C65.4885 61.4945 65.6395 61.5405 65.7665 61.6135C65.8985 61.6815 66.0015 61.7785 66.0775 61.9055C66.1535 62.0275 66.1905 62.1925 66.1905 62.3945L66.1935 62.3925ZM64.3635 63.3005C64.4745 63.3005 64.5665 63.2655 64.6415 63.1925C64.7225 63.1165 64.7855 63.0245 64.8335 62.9195C64.8855 62.8135 64.9205 62.7005 64.9415 62.5845C64.9635 62.4595 64.9745 62.3545 64.9745 62.2655C64.9745 62.1545 64.9555 62.0625 64.9175 61.9865C64.8795 61.9055 64.7955 61.8655 64.6685 61.8655H64.3825L64.0635 63.3005H64.3635ZM68.6405 61.4325H71.3145L71.2115 61.9165H69.9165L69.6485 63.1435H70.7355L70.6325 63.6195H69.5465L69.2545 64.9795H70.5515L70.4575 65.4685H67.7835L68.6405 61.4355V61.4325Z" fill="#F1F1EC"/>
<path d="M75.0635 64.0795C75.4135 64.0795 75.6985 63.7945 75.6985 63.4435C75.6985 63.0925 75.4135 62.8085 75.0635 62.8085C74.7125 62.8085 74.4275 63.0925 74.4275 63.4435C74.4275 63.7945 74.7125 64.0795 75.0635 64.0795Z" fill="#F1F1EC"/>
<path d="M81.5055 62.6035C81.5195 62.5385 81.5245 62.4515 81.5245 62.3435C81.5245 62.2785 81.5215 62.2195 81.5105 62.1595C81.5025 62.0945 81.4865 62.0405 81.4675 61.9945C81.4465 61.9435 81.4135 61.9055 81.3735 61.8815C81.3295 61.8515 81.2755 61.8355 81.2085 61.8355C81.1325 61.8355 81.0625 61.8515 81.0005 61.8865C80.9355 61.9215 80.8785 61.9655 80.8275 62.0195C80.7815 62.0705 80.7435 62.1295 80.7135 62.2025C80.6895 62.2705 80.6755 62.3435 80.6755 62.4195C80.6755 62.5305 80.7025 62.6135 80.7595 62.6735C80.8185 62.7325 80.8945 62.7815 80.9895 62.8195C81.0815 62.8575 81.1895 62.8895 81.3055 62.9135C81.4215 62.9385 81.5465 62.9685 81.6735 63.0035C81.7785 63.0325 81.8845 63.0705 81.9895 63.1165C82.0945 63.1625 82.1895 63.2275 82.2675 63.3085C82.3515 63.3845 82.4195 63.4875 82.4705 63.6145C82.5225 63.7355 82.5465 63.8925 82.5465 64.0795C82.5465 64.3465 82.4925 64.5715 82.3865 64.7525C82.2815 64.9335 82.1355 65.0825 81.9485 65.1955C81.7625 65.3095 81.5405 65.3935 81.2815 65.4445C81.0275 65.4955 80.7485 65.5205 80.4485 65.5205C80.1485 65.5205 79.8945 65.5015 79.6995 65.4635C79.5105 65.4205 79.3585 65.3765 79.2485 65.3305C79.1155 65.2765 79.0185 65.2115 78.9565 65.1385L79.1725 64.2685H80.2915C80.2865 64.3065 80.2835 64.3605 80.2785 64.4275C80.2725 64.4925 80.2725 64.5415 80.2725 64.5795C80.2725 64.6305 80.2785 64.6825 80.2915 64.7385C80.3055 64.7925 80.3245 64.8445 80.3485 64.8905C80.3785 64.9365 80.4185 64.9745 80.4705 65.0035C80.5215 65.0335 80.5835 65.0495 80.6595 65.0495C80.7435 65.0495 80.8185 65.0305 80.8815 64.9925C80.9485 64.9555 81.0025 64.9095 81.0455 64.8525C81.0915 64.7925 81.1275 64.7305 81.1485 64.6605C81.1735 64.5875 81.1865 64.5195 81.1865 64.4525C81.1865 64.3575 81.1625 64.2795 81.1165 64.2175C81.0735 64.1545 81.0135 64.1005 80.9375 64.0575C80.8625 64.0115 80.7725 63.9735 80.6705 63.9445C80.5725 63.9115 80.4705 63.8765 80.3645 63.8415C80.2615 63.8115 80.1535 63.7765 80.0405 63.7335C79.9295 63.6895 79.8295 63.6305 79.7345 63.5545C79.6425 63.4795 79.5645 63.3845 79.4995 63.2685C79.4405 63.1495 79.4105 63.0005 79.4105 62.8165C79.4105 62.5465 79.4775 62.3195 79.6135 62.1385C79.7535 61.9515 79.9265 61.8005 80.1345 61.6865C80.3455 61.5735 80.5785 61.4915 80.8275 61.4455C81.0755 61.3945 81.3135 61.3705 81.5385 61.3705C81.8355 61.3705 82.0895 61.4055 82.3005 61.4785C82.5165 61.5455 82.6785 61.6275 82.7895 61.7195L82.5545 62.6035H81.5005H81.5055ZM88.0645 61.9165H87.0425L86.2855 65.4685H84.9125L85.6695 61.9165H84.6575L84.7715 61.4325H88.1695L88.0615 61.9165H88.0645ZM93.2015 62.3925C93.2015 62.6405 93.1305 62.8735 92.9925 63.0845C92.8525 63.2955 92.6225 63.4575 92.3005 63.5685L93.0385 65.4685H91.6225L91.0625 63.7085H90.9925L90.6165 65.4685H89.2435L90.1005 61.4355H91.7705C91.9655 61.4355 92.1495 61.4485 92.3255 61.4725C92.4985 61.4945 92.6495 61.5405 92.7765 61.6135C92.9065 61.6815 93.0115 61.7785 93.0875 61.9055C93.1635 62.0275 93.2015 62.1925 93.2015 62.3945V62.3925ZM91.3735 63.3005C91.4845 63.3005 91.5765 63.2655 91.6515 63.1925C91.7335 63.1165 91.7955 63.0245 91.8415 62.9195C91.8925 62.8135 91.9275 62.7005 91.9495 62.5845C91.9705 62.4595 91.9815 62.3545 91.9815 62.2655C91.9815 62.1545 91.9625 62.0625 91.9255 61.9865C91.8875 61.9055 91.8035 61.8655 91.6765 61.8655H91.3895L91.0735 63.3005H91.3735ZM95.6475 61.4325H98.3245L98.2215 61.9165H96.9235L96.6565 63.1435H97.7435L97.6405 63.6195H96.5535L96.2615 64.9795H97.5595L97.4645 65.4685H94.7885L95.6455 61.4355L95.6475 61.4325ZM101.982 62.6035C101.995 62.5385 102.001 62.4515 102.001 62.3435C102.001 62.2785 101.996 62.2195 101.988 62.1595C101.98 62.0945 101.964 62.0405 101.945 61.9945C101.923 61.9435 101.891 61.9055 101.85 61.8815C101.807 61.8515 101.752 61.8355 101.684 61.8355C101.609 61.8355 101.538 61.8515 101.473 61.8865C101.409 61.9215 101.352 61.9655 101.303 62.0195C101.257 62.0705 101.22 62.1295 101.191 62.2025C101.166 62.2705 101.152 62.3435 101.152 62.4195C101.152 62.5305 101.18 62.6135 101.234 62.6735C101.293 62.7325 101.369 62.7815 101.464 62.8195C101.558 62.8575 101.663 62.8895 101.779 62.9135C101.898 62.9385 102.021 62.9685 102.148 63.0035C102.253 63.0325 102.358 63.0705 102.464 63.1165C102.569 63.1625 102.664 63.2275 102.742 63.3085C102.826 63.3845 102.894 63.4875 102.945 63.6145C102.996 63.7355 103.021 63.8925 103.021 64.0795C103.021 64.3465 102.967 64.5715 102.861 64.7525C102.756 64.9335 102.61 65.0825 102.423 65.1955C102.237 65.3095 102.015 65.3935 101.756 65.4445C101.501 65.4955 101.223 65.5205 100.923 65.5205C100.623 65.5205 100.369 65.5015 100.174 65.4635C99.9845 65.4205 99.8325 65.3765 99.7225 65.3305C99.5895 65.2765 99.4925 65.2115 99.4305 65.1385L99.6465 64.2685H100.766C100.763 64.3065 100.758 64.3605 100.753 64.4275C100.75 64.4925 100.747 64.5415 100.747 64.5795C100.747 64.6305 100.753 64.6825 100.766 64.7385C100.78 64.7925 100.798 64.8445 100.822 64.8905C100.852 64.9365 100.893 64.9745 100.945 65.0035C100.996 65.0335 101.057 65.0495 101.135 65.0495C101.219 65.0495 101.295 65.0305 101.357 64.9925C101.425 64.9555 101.483 64.9095 101.523 64.8525C101.569 64.7925 101.604 64.7305 101.626 64.6605C101.65 64.5875 101.663 64.5195 101.663 64.4525C101.663 64.3575 101.638 64.2795 101.592 64.2175C101.549 64.1545 101.491 64.1005 101.415 64.0575C101.339 64.0115 101.249 63.9735 101.146 63.9445C101.049 63.9115 100.947 63.8765 100.842 63.8415C100.739 63.8115 100.63 63.7765 100.516 63.7335C100.406 63.6895 100.306 63.6305 100.212 63.5545C100.12 63.4795 100.042 63.3845 99.9765 63.2685C99.9165 63.1495 99.8865 63.0005 99.8865 62.8165C99.8865 62.5465 99.9545 62.3195 100.09 62.1385C100.231 61.9515 100.403 61.8005 100.611 61.6865C100.822 61.5735 101.054 61.4915 101.303 61.4455C101.552 61.3945 101.79 61.3705 102.014 61.3705C102.311 61.3705 102.566 61.4055 102.777 61.4785C102.993 61.5455 103.155 61.6275 103.266 61.7195L103.031 62.6035H101.977H101.982ZM107.238 62.6035C107.252 62.5385 107.257 62.4515 107.257 62.3435C107.257 62.2785 107.251 62.2195 107.243 62.1595C107.235 62.0945 107.218 62.0405 107.199 61.9945C107.178 61.9435 107.145 61.9055 107.105 61.8815C107.062 61.8515 107.009 61.8355 106.941 61.8355C106.865 61.8355 106.794 61.8515 106.732 61.8865C106.67 61.9215 106.61 61.9655 106.559 62.0195C106.513 62.0705 106.475 62.1295 106.445 62.2025C106.421 62.2705 106.408 62.3435 106.408 62.4195C106.408 62.5305 106.435 62.6135 106.492 62.6735C106.552 62.7325 106.626 62.7815 106.721 62.8195C106.816 62.8575 106.922 62.8895 107.038 62.9135C107.157 62.9385 107.279 62.9685 107.406 63.0035C107.511 63.0325 107.617 63.0705 107.725 63.1165C107.83 63.1625 107.925 63.2275 108.003 63.3085C108.087 63.3845 108.155 63.4875 108.206 63.6145C108.258 63.7355 108.281 63.8925 108.281 64.0795C108.281 64.3465 108.228 64.5715 108.122 64.7525C108.017 64.9335 107.871 65.0825 107.684 65.1955C107.498 65.3095 107.275 65.3935 107.016 65.4445C106.762 65.4955 106.484 65.5205 106.184 65.5205C105.884 65.5205 105.629 65.5015 105.434 65.4635C105.245 65.4205 105.094 65.3765 104.984 65.3305C104.851 65.2765 104.753 65.2115 104.691 65.1385L104.908 64.2685H106.027C106.022 64.3065 106.019 64.3605 106.014 64.4275C106.008 64.4925 106.008 64.5415 106.008 64.5795C106.008 64.6305 106.014 64.6825 106.027 64.7385C106.041 64.7925 106.059 64.8445 106.083 64.8905C106.113 64.9365 106.154 64.9745 106.206 65.0035C106.257 65.0335 106.319 65.0495 106.395 65.0495C106.479 65.0495 106.554 65.0305 106.617 64.9925C106.684 64.9555 106.738 64.9095 106.781 64.8525C106.827 64.7925 106.862 64.7305 106.883 64.6605C106.908 64.5875 106.921 64.5195 106.921 64.4525C106.921 64.3575 106.898 64.2795 106.852 64.2175C106.808 64.1545 106.749 64.1005 106.673 64.0575C106.598 64.0115 106.508 63.9735 106.406 63.9445C106.308 63.9115 106.206 63.8765 106.1 63.8415C105.997 63.8115 105.891 63.7765 105.775 63.7335C105.664 63.6895 105.564 63.6305 105.469 63.5545C105.377 63.4795 105.299 63.3845 105.234 63.2685C105.175 63.1495 105.146 63.0005 105.146 62.8165C105.146 62.5465 105.212 62.3195 105.348 62.1385C105.488 61.9515 105.662 61.8005 105.87 61.6865C106.081 61.5735 106.314 61.4915 106.562 61.4455C106.811 61.3945 107.049 61.3705 107.273 61.3705C107.571 61.3705 107.825 61.4055 108.036 61.4785C108.252 61.5455 108.414 61.6275 108.525 61.7195L108.29 62.6035H107.236H107.238ZM113.585 61.4325H114.965L114.215 64.9335H115.506L115.398 65.4665H112.729L113.585 61.4325ZM118.176 61.4325H120.85L120.747 61.9165H119.449L119.182 63.1435H120.268L120.167 63.6195H119.079L118.788 64.9795H120.085L119.99 65.4685H117.316L118.174 61.4355L118.176 61.4325ZM124.514 62.6035C124.527 62.5385 124.533 62.4515 124.533 62.3435C124.533 62.2785 124.526 62.2195 124.518 62.1595C124.51 62.0945 124.494 62.0405 124.475 61.9945C124.453 61.9435 124.422 61.9055 124.381 61.8815C124.338 61.8515 124.284 61.8355 124.217 61.8355C124.141 61.8355 124.071 61.8515 124.006 61.8865C123.941 61.9215 123.884 61.9655 123.835 62.0195C123.789 62.0705 123.751 62.1295 123.721 62.2025C123.696 62.2705 123.684 62.3435 123.684 62.4195C123.684 62.5305 123.71 62.6135 123.764 62.6735C123.824 62.7325 123.9 62.7815 123.995 62.8195C124.089 62.8575 124.195 62.8895 124.311 62.9135C124.43 62.9385 124.551 62.9685 124.678 63.0035C124.783 63.0325 124.89 63.0705 124.995 63.1165C125.101 63.1625 125.194 63.2275 125.273 63.3085C125.356 63.3845 125.424 63.4875 125.475 63.6145C125.527 63.7355 125.551 63.8925 125.551 64.0795C125.551 64.3465 125.498 64.5715 125.393 64.7525C125.287 64.9335 125.14 65.0825 124.954 65.1955C124.767 65.3095 124.545 65.3935 124.286 65.4445C124.032 65.4955 123.754 65.5205 123.454 65.5205C123.154 65.5205 122.899 65.5015 122.704 65.4635C122.512 65.4205 122.364 65.3765 122.253 65.3305C122.12 65.2765 122.024 65.2115 121.962 65.1385L122.178 64.2685H123.296C123.291 64.3065 123.289 64.3605 123.284 64.4275C123.278 64.4925 123.277 64.5415 123.277 64.5795C123.277 64.6305 123.283 64.6825 123.296 64.7385C123.31 64.7925 123.33 64.8445 123.354 64.8905C123.384 64.9365 123.423 64.9745 123.475 65.0035C123.526 65.0335 123.588 65.0495 123.667 65.0495C123.751 65.0495 123.827 65.0305 123.889 64.9925C123.957 64.9555 124.01 64.9095 124.053 64.8525C124.099 64.7925 124.134 64.7305 124.156 64.6605C124.18 64.5875 124.195 64.5195 124.195 64.4525C124.195 64.3575 124.17 64.2795 124.124 64.2175C124.08 64.1545 124.021 64.1005 123.945 64.0575C123.869 64.0115 123.78 63.9735 123.678 63.9445C123.58 63.9115 123.477 63.8765 123.372 63.8415C123.269 63.8115 123.162 63.7765 123.049 63.7335C122.938 63.6895 122.838 63.6305 122.743 63.5545C122.648 63.4795 122.573 63.3845 122.508 63.2685C122.448 63.1495 122.419 63.0005 122.419 62.8165C122.419 62.5465 122.485 62.3195 122.62 62.1385C122.761 61.9515 122.935 61.8005 123.143 61.6865C123.354 61.5735 123.587 61.4915 123.835 61.4455C124.087 61.3945 124.322 61.3705 124.546 61.3705C124.844 61.3705 125.098 61.4055 125.309 61.4785C125.525 61.5455 125.687 61.6275 125.798 61.7195L125.562 62.6035H124.508H124.514ZM129.766 62.6035C129.779 62.5385 129.786 62.4515 129.786 62.3435C129.786 62.2785 129.779 62.2195 129.771 62.1595C129.763 62.0945 129.747 62.0405 129.725 61.9945C129.704 61.9435 129.672 61.9055 129.632 61.8815C129.588 61.8515 129.534 61.8355 129.467 61.8355C129.391 61.8355 129.32 61.8515 129.258 61.8865C129.193 61.9215 129.136 61.9655 129.085 62.0195C129.039 62.0705 129.001 62.1295 128.971 62.2025C128.947 62.2705 128.934 62.3435 128.934 62.4195C128.934 62.5305 128.961 62.6135 129.018 62.6735C129.078 62.7325 129.152 62.7815 129.247 62.8195C129.341 62.8575 129.448 62.8895 129.564 62.9135C129.68 62.9385 129.805 62.9685 129.932 63.0035C130.037 63.0325 130.142 63.0705 130.247 63.1165C130.353 63.1625 130.448 63.2275 130.527 63.3085C130.61 63.3845 130.678 63.4875 130.729 63.6145C130.781 63.7355 130.805 63.8925 130.805 64.0795C130.805 64.3465 130.751 64.5715 130.646 64.7525C130.54 64.9335 130.394 65.0825 130.208 65.1955C130.021 65.3095 129.799 65.3935 129.54 65.4445C129.286 65.4955 129.006 65.5205 128.706 65.5205C128.406 65.5205 128.153 65.5015 127.958 65.4635C127.769 65.4205 127.618 65.3765 127.507 65.3305C127.374 65.2765 127.277 65.2115 127.215 65.1385L127.43 64.2685H128.549C128.544 64.3065 128.541 64.3605 128.536 64.4275C128.53 64.4925 128.531 64.5415 128.531 64.5795C128.531 64.6305 128.536 64.6825 128.549 64.7385C128.563 64.7925 128.583 64.8445 128.607 64.8905C128.637 64.9365 128.677 64.9745 128.729 65.0035C128.78 65.0335 128.842 65.0495 128.921 65.0495C129.005 65.0495 129.079 65.0305 129.141 64.9925C129.209 64.9555 129.264 64.9095 129.307 64.8525C129.353 64.7925 129.388 64.7305 129.41 64.6605C129.434 64.5875 129.447 64.5195 129.447 64.4525C129.447 64.3575 129.424 64.2795 129.378 64.2175C129.334 64.1545 129.275 64.1005 129.199 64.0575C129.123 64.0115 129.034 63.9735 128.932 63.9445C128.834 63.9115 128.731 63.8765 128.626 63.8415C128.523 63.8115 128.414 63.7765 128.301 63.7335C128.19 63.6895 128.09 63.6305 127.995 63.5545C127.903 63.4795 127.825 63.3845 127.76 63.2685C127.7 63.1495 127.671 63.0005 127.671 62.8165C127.671 62.5465 127.739 62.3195 127.874 62.1385C128.015 61.9515 128.188 61.8005 128.396 61.6865C128.607 61.5735 128.839 61.4915 129.087 61.4455C129.336 61.3945 129.575 61.3705 129.799 61.3705C130.097 61.3705 130.351 61.4055 130.562 61.4785C130.778 61.5455 130.94 61.6275 131.051 61.7195L130.816 62.6035H129.76H129.766Z" fill="#F1F1EC"/>
<path d="M153.1 62.8685H134.68V64.0195H153.1V62.8685Z" fill="#F1F1EC"/>
</svg>
