<?xml version="1.0" encoding="UTF-8"?><svg id="Layer_2" xmlns="http://www.w3.org/2000/svg" viewBox="0 0 499.999 145.941"><g id="Components"><g id="cb431bda-8f29-4378-ad85-b1dc1efbe129_5"><path d="M393.421,145.699l43.205-118.7058h-22.743L423.664.1204h76.335l-9.781,26.8728h-22.743l-43.205,118.7058h-30.849Z" style="fill:#fff;"/><path d="M301.701,145.699L354.688.1204h62.148l-9.626,26.4496h-31.3l-11.783,32.3744h27.471l-9.627,26.4496h-27.471l-12.323,33.856h31.3l-9.627,26.449h-62.149Z" style="fill:#fff;"/><path d="M234.287,145.699L287.273.1204h30.85l-43.206,118.7056h28.373l-9.781,26.873h-59.222Z" style="fill:#fff;"/><path d="M194.157,145.699l6.724-28.989h-23.194l-14.379,28.989h-30.849L208.639.1204h46.611l-29.793,145.5786h-31.3ZM222.11,28.686h-1.576l-30.601,62.4212h17.339l14.838-62.4212Z" style="fill:#fff;"/><path d="M68.0298,145.7L108.766.1211h26.004l-29.215,115.5319h2.252L161.792.1211h30.624l-73.928,145.5789h-50.4582Z" style="fill:#fff;"/><path d="M62.3045,145.579h-21.8748L81.8898,0h21.3272l-40.9125,145.579Z" style="fill:rgba(255,255,255,.7);"/><path d="M33.4706,145.579h-13.9081L61.0226,0h13.3607l-40.9127,145.579Z" style="fill:rgba(255,255,255,.5);"/><path d="M8.9088,145.941H0L41.4601.3621h8.3614L8.9088,145.941Z" style="fill:rgba(255,255,255,.3);"/></g></g></svg>