<svg width="181" height="53" viewBox="0 0 181 53" fill="none" xmlns="http://www.w3.org/2000/svg">
<path d="M141.934 52.5625L157.52 9.7381H149.314L152.842 0.0431976H180.382L176.852 9.7381H168.648L153.062 52.5625H141.932H141.934Z" fill="#F1F1EC"/>
<path d="M108.574 52.5625L127.691 0.0431976H150.111L146.637 9.584H135.344L131.094 21.2633H141.006L137.531 30.8041H127.62L123.176 43.0186H134.469L130.995 52.5595H108.574V52.5625Z" fill="#F1F1EC"/>
<path d="M84.2555 52.5625L103.37 0.0431976H114.499L98.9135 42.8672H109.15L105.622 52.5625H84.2555Z" fill="#F1F1EC"/>
<path d="M70.0415 52.5625L72.4665 42.1048H64.0995L58.9115 52.5625H47.7805L75.2655 0.0431976H92.0815L81.3315 52.5625H70.0395H70.0415ZM80.1255 10.3491H79.5585L68.5195 32.8696H74.7755L80.1285 10.3491H80.1255Z" fill="#F1F1EC"/>
<path d="M25.3505 52.5625L40.0445 0.0431976H49.4255L38.8845 41.7236H39.6955L59.1745 0.0431976H70.2215L43.5505 52.5625H25.3478H25.3505Z" fill="#B8963E"/>
<path d="M22.4738 52.5185H14.5822L29.5382 0H37.2325L22.4738 52.5185Z" fill="#B8963E" fill-opacity="0.7"/>
<path d="M11.5317 52.5185H6.5139L21.4726 0H26.293L11.5344 52.5185H11.5317Z" fill="#B8963E" fill-opacity="0.5"/>
<path d="M3.2145 52.6515H0L14.9587 0.129791H17.9759L3.2145 52.6515Z" fill="#B8963E" fill-opacity="0.39"/>
</svg>
